<svg width="75" height="75" viewBox="0 0 75 75" version="1.1" xmlns="http://www.w3.org/2000/svg" xmlns:xlink="http://www.w3.org/1999/xlink">
<title>linkedin</title>
<desc>Created using Figma</desc>
<g id="Canvas" transform="translate(-673 -1841)">
<g id="linkedin">
<g id="Vector">
<use xlink:href="#path0_fill" transform="translate(673 1841)" fill="#EFF1F4"/>
</g>
</g>
</g>
<defs>
<path id="path0_fill" d="M 69.6429 0L 5.3404 0C 2.39397 0 0 2.42746 0 5.40737L 0 69.5926C 0 72.5725 2.39397 75 5.3404 75L 69.6429 75C 72.5893 75 75 72.5725 75 69.5926L 75 5.40737C 75 2.42746 72.5893 0 69.6429 0ZM 22.6674 64.2857L 11.5513 64.2857L 11.5513 28.4933L 22.6842 28.4933L 22.6842 64.2857L 22.6674 64.2857ZM 17.1094 23.6049C 13.5435 23.6049 10.6641 20.7087 10.6641 17.1596C 10.6641 13.6105 13.5435 10.7143 17.1094 10.7143C 20.6585 10.7143 23.5547 13.6105 23.5547 17.1596C 23.5547 20.7254 20.6752 23.6049 17.1094 23.6049L 17.1094 23.6049ZM 64.3359 64.2857L 53.2199 64.2857L 53.2199 46.875C 53.2199 42.7232 53.1362 37.3828 47.4442 37.3828C 41.6518 37.3828 40.7645 41.9029 40.7645 46.5737L 40.7645 64.2857L 29.6484 64.2857L 29.6484 28.4933L 40.3125 28.4933L 40.3125 33.3817L 40.4632 33.3817C 41.9531 30.5692 45.5859 27.606 50.9933 27.606C 62.2433 27.606 64.3359 35.0223 64.3359 44.6652L 64.3359 64.2857L 64.3359 64.2857Z"/>
</defs>
</svg>
