<svg width="25" height="33" viewBox="0 0 25 33" version="1.1" xmlns="http://www.w3.org/2000/svg" xmlns:xlink="http://www.w3.org/1999/xlink">
<title>Union</title>
<desc>Created using Figma</desc>
<g id="Canvas" transform="translate(-85 508)">
<g id="Union">
<use xlink:href="#path0_fill" transform="translate(86 -507)" fill="#C5AE66"/>
<use xlink:href="#path1_fill" transform="translate(86 -507)" fill="#C5AE66"/>
<use xlink:href="#path2_stroke" transform="translate(86 -507)" fill="#C5AE66"/>
</g>
</g>
<defs>
<path id="path0_fill" d="M 0 0.396137L 5.30769 0.396137L 5.30769 4.22164C 8.10897 1.41628 15.5692 -3.27632 23 3.45653L 23 6.99999C 21.5256 4.5772 13.8 1.39077 5.30769 8.42965L 5.30769 31L 0 31L 0 0.396137Z"/>
<path id="path1_fill" d="M 8 10.4073L 8 31L 23 31L 23 22L 16.3333 22L 16.3333 24.5L 20 24.5L 20 28.0581L 11.5 28.0581L 11.5 12C 14.9074 10.7742 21.2222 10.7529 23 15.754L 23 11.3147C 20.5 6.40731 13.6889 4.81789 8 10.4073Z"/>
<path id="path2_stroke" d="M 5.30769 0.396137L 5.80769 0.396137L 5.80769 -0.103863L 5.30769 -0.103863L 5.30769 0.396137ZM 0 0.396137L 0 -0.103863L -0.5 -0.103863L -0.5 0.396137L 0 0.396137ZM 5.30769 4.22164L 4.80769 4.22164L 4.80769 5.42999L 5.6615 4.57493L 5.30769 4.22164ZM 23 3.45653L 23.5 3.45653L 23.5 3.23485L 23.3357 3.08601L 23 3.45653ZM 23 6.99999L 22.5729 7.25991L 23.5 8.78345L 23.5 6.99999L 23 6.99999ZM 5.30769 8.42965L 4.98862 8.04469L 4.80769 8.19465L 4.80769 8.42965L 5.30769 8.42965ZM 5.30769 31L 5.30769 31.5L 5.80769 31.5L 5.80769 31L 5.30769 31ZM 0 31L -0.5 31L -0.5 31.5L 0 31.5L 0 31ZM 8 31L 7.5 31L 7.5 31.5L 8 31.5L 8 31ZM 8 10.4073L 7.64958 10.0507L 7.5 10.1976L 7.5 10.4073L 8 10.4073ZM 23 31L 23 31.5L 23.5 31.5L 23.5 31L 23 31ZM 23 22L 23.5 22L 23.5 21.5L 23 21.5L 23 22ZM 16.3333 22L 16.3333 21.5L 15.8333 21.5L 15.8333 22L 16.3333 22ZM 16.3333 24.5L 15.8333 24.5L 15.8333 25L 16.3333 25L 16.3333 24.5ZM 20 24.5L 20.5 24.5L 20.5 24L 20 24L 20 24.5ZM 20 28.0581L 20 28.5581L 20.5 28.5581L 20.5 28.0581L 20 28.0581ZM 11.5 28.0581L 11 28.0581L 11 28.5581L 11.5 28.5581L 11.5 28.0581ZM 11.5 12L 11.3308 11.5295L 11 11.6485L 11 12L 11.5 12ZM 23 15.754L 22.5289 15.9215L 23.5 15.754L 23 15.754ZM 23 11.3147L 23.5 11.3147L 23.5 11.1946L 23.4455 11.0877L 23 11.3147ZM 5.30769 -0.103863L 0 -0.103863L 0 0.896137L 5.30769 0.896137L 5.30769 -0.103863ZM 5.80769 4.22164L 5.80769 0.396137L 4.80769 0.396137L 4.80769 4.22164L 5.80769 4.22164ZM 23.3357 3.08601C 19.4964 -0.392681 15.6077 -0.941541 12.3118 -0.226373C 9.04693 0.482044 6.39993 2.42019 4.95388 3.86834L 5.6615 4.57493C 7.01674 3.21772 9.5005 1.4069 12.5238 0.750886C 15.516 0.101629 19.0728 0.572895 22.6643 3.82706L 23.3357 3.08601ZM 23.5 6.99999L 23.5 3.45653L 22.5 3.45653L 22.5 6.99999L 23.5 6.99999ZM 5.62676 8.8146C 9.78138 5.37104 13.7111 4.45539 16.7511 4.6655C 18.276 4.77089 19.5811 5.15964 20.5851 5.65908C 21.5999 6.16388 22.2703 6.76271 22.5729 7.25991L 23.4271 6.74006C 22.9925 6.02588 22.1444 5.31785 21.0305 4.76375C 19.9059 4.20429 18.4724 3.78209 16.8201 3.66788C 13.5055 3.4388 9.32631 4.44937 4.98862 8.04469L 5.62676 8.8146ZM 5.80769 31L 5.80769 8.42965L 4.80769 8.42965L 4.80769 31L 5.80769 31ZM 0 31.5L 5.30769 31.5L 5.30769 30.5L 0 30.5L 0 31.5ZM -0.5 0.396137L -0.5 31L 0.5 31L 0.5 0.396137L -0.5 0.396137ZM 8.5 31L 8.5 10.4073L 7.5 10.4073L 7.5 31L 8.5 31ZM 22.5 22L 22.5 31L 23.5 31L 23.5 22L 22.5 22ZM 16.3333 22.5L 23 22.5L 23 21.5L 16.3333 21.5L 16.3333 22.5ZM 16.8333 24.5L 16.8333 22L 15.8333 22L 15.8333 24.5L 16.8333 24.5ZM 20 24L 16.3333 24L 16.3333 25L 20 25L 20 24ZM 20.5 28.0581L 20.5 24.5L 19.5 24.5L 19.5 28.0581L 20.5 28.0581ZM 11.5 28.5581L 20 28.5581L 20 27.5581L 11.5 27.5581L 11.5 28.5581ZM 11 12L 11 28.0581L 12 28.0581L 12 12L 11 12ZM 23.4711 15.5865C 22.5078 12.8766 20.3081 11.5438 17.9636 11.0525C 15.6344 10.5645 13.1095 10.8896 11.3308 11.5295L 11.6692 12.4704C 13.2979 11.8846 15.6341 11.5862 17.7586 12.0313C 19.8678 12.4732 21.7144 13.6303 22.5289 15.9215L 23.4711 15.5865ZM 22.5 11.3147L 22.5 15.754L 23.5 15.754L 23.5 11.3147L 22.5 11.3147ZM 8.35042 10.764C 11.1042 8.05839 14.0846 7.12906 16.639 7.42145C 19.1975 7.71433 21.38 9.23619 22.5545 11.5416L 23.4455 11.0877C 22.12 8.48577 19.647 6.75925 16.7527 6.42794C 13.8542 6.09615 10.5847 7.16683 7.64958 10.0507L 8.35042 10.764ZM 23 30.5L 8 30.5L 8 31.5L 23 31.5L 23 30.5Z"/>
</defs>
</svg>
