<svg width="75" height="75" viewBox="0 0 75 75" version="1.1" xmlns="http://www.w3.org/2000/svg" xmlns:xlink="http://www.w3.org/1999/xlink">
<title>github</title>
<desc>Created using Figma</desc>
<g id="Canvas" transform="translate(-630 -1137)">
<g id="github">
<g id="Vector">
<use xlink:href="#path0_fill" transform="translate(630 1137)" fill="#EFF1F4"/>
</g>
</g>
</g>
<defs>
<path id="path0_fill" d="M 25.0857 60.3899C 25.0857 60.7001 24.7379 60.9482 24.2994 60.9482C 23.8004 60.9947 23.4526 60.7466 23.4526 60.3899C 23.4526 60.0797 23.8004 59.8316 24.2389 59.8316C 24.6925 59.7851 25.0857 60.0332 25.0857 60.3899ZM 20.3831 59.692C 20.2772 60.0022 20.5796 60.3589 21.0333 60.4519C 21.4264 60.607 21.88 60.4519 21.9708 60.1418C 22.0615 59.8316 21.7742 59.4749 21.3206 59.3353C 20.9274 59.2268 20.4889 59.3818 20.3831 59.692ZM 27.0665 59.4284C 26.628 59.5369 26.3256 59.8316 26.371 60.1883C 26.4163 60.4985 26.8095 60.7001 27.2631 60.5915C 27.7016 60.4829 28.004 60.1883 27.9587 59.8781C 27.9133 59.5835 27.505 59.3818 27.0665 59.4284ZM 37.0161 0C 16.0433 0 0 16.3304 0 37.8406C 0 55.0395 10.5544 69.757 25.63 74.9368C 27.5655 75.2935 28.246 74.0683 28.246 73.0603C 28.246 72.0988 28.2006 66.7949 28.2006 63.5381C 28.2006 63.5381 17.6159 65.8644 15.3931 58.9166C 15.3931 58.9166 13.6694 54.4036 11.1895 53.2405C 11.1895 53.2405 7.72681 50.8057 11.4315 50.8522C 11.4315 50.8522 15.1966 51.1624 17.2681 54.8534C 20.5796 60.8396 26.129 59.1182 28.2913 58.0946C 28.6391 55.6133 29.622 53.8919 30.7107 52.8683C 22.2581 51.9068 13.7298 50.6506 13.7298 35.7315C 13.7298 31.4666 14.879 29.3265 17.2984 26.597C 16.9052 25.5889 15.62 21.4327 17.6915 16.0668C 20.8518 15.0587 28.125 20.254 28.125 20.254C 31.1492 19.3856 34.4002 18.9358 37.621 18.9358C 40.8417 18.9358 44.0927 19.3856 47.1169 20.254C 47.1169 20.254 54.3901 15.0432 57.5504 16.0668C 59.622 21.4482 58.3367 25.5889 57.9436 26.597C 60.3629 29.342 61.8448 31.4821 61.8448 35.7315C 61.8448 50.6971 52.9385 51.8913 44.4859 52.8683C 45.877 54.0935 47.0565 56.4197 47.0565 60.0642C 47.0565 65.2906 47.0111 71.7576 47.0111 73.0293C 47.0111 74.0373 47.7067 75.2625 49.627 74.9058C 64.748 69.757 75 55.0395 75 37.8406C 75 16.3304 57.9889 0 37.0161 0ZM 14.6976 53.4886C 14.501 53.6437 14.5464 54.0004 14.8034 54.2951C 15.0454 54.5432 15.3931 54.6518 15.5897 54.4502C 15.7863 54.2951 15.7409 53.9384 15.4839 53.6437C 15.2419 53.3956 14.8942 53.287 14.6976 53.4886ZM 13.0645 52.2324C 12.9587 52.4341 13.1099 52.6822 13.4123 52.8373C 13.6542 52.9924 13.9567 52.9458 14.0625 52.7287C 14.1683 52.5271 14.0171 52.279 13.7147 52.1239C 13.4123 52.0308 13.1704 52.0774 13.0645 52.2324ZM 17.9637 57.7535C 17.7218 57.9551 17.8125 58.4203 18.1603 58.715C 18.5081 59.0717 18.9466 59.1182 19.1431 58.8701C 19.3397 58.6685 19.249 58.2032 18.9466 57.9085C 18.6139 57.5518 18.1603 57.5053 17.9637 57.7535ZM 16.2399 55.4737C 15.998 55.6288 15.998 56.032 16.2399 56.3887C 16.4819 56.7454 16.8901 56.9005 17.0867 56.7454C 17.3286 56.5438 17.3286 56.1406 17.0867 55.7839C 16.875 55.4272 16.4819 55.2721 16.2399 55.4737Z"/>
</defs>
</svg>
